<?xml version="1.0" encoding="UTF-8" standalone="no"?>
<svg
   xmlns:dc="http://purl.org/dc/elements/1.1/"
   xmlns:cc="http://creativecommons.org/ns#"
   xmlns:rdf="http://www.w3.org/1999/02/22-rdf-syntax-ns#"
   xmlns:svg="http://www.w3.org/2000/svg"
   xmlns="http://www.w3.org/2000/svg"
   xmlns:xlink="http://www.w3.org/1999/xlink"
   xmlns:sodipodi="http://sodipodi.sourceforge.net/DTD/sodipodi-0.dtd"
   xmlns:inkscape="http://www.inkscape.org/namespaces/inkscape"
   viewBox="0 0 1417.3228 1062.9921"
   version="1.1"
   id="svg4694"
   sodipodi:docname="bavaria-link-test.svg"
   inkscape:version="0.92.4 (5da689c313, 2019-01-14)">
  <metadata
     id="metadata4700">
    <rdf:RDF>
      <cc:Work
         rdf:about="">
        <dc:format>image/svg+xml</dc:format>
        <dc:type
           rdf:resource="http://purl.org/dc/dcmitype/StillImage" />
        <dc:title></dc:title>
      </cc:Work>
    </rdf:RDF>
  </metadata>
  <defs
     id="defs4698" />
  <sodipodi:namedview
     pagecolor="#ffffff"
     bordercolor="#666666"
     borderopacity="1"
     objecttolerance="10"
     gridtolerance="10"
     guidetolerance="10"
     inkscape:pageopacity="0"
     inkscape:pageshadow="2"
     inkscape:window-width="1920"
     inkscape:window-height="1017"
     id="namedview4696"
     showgrid="false"
     inkscape:zoom="0.79962968"
     inkscape:cx="708.66138"
     inkscape:cy="531.49603"
     inkscape:window-x="1358"
     inkscape:window-y="-8"
     inkscape:window-maximized="1"
     inkscape:current-layer="svg4694" />
  <path
     d="m1e-6 -1.3e-4h1417.3v1063h-1417.3z"
     fill="#fff"
     fill-rule="evenodd"
     id="path4610" />
  <path
     d="m106.3-1.5258e-5 53.15 159.45 159.45 53.149-53.149-159.45-159.45-53.15z"
     fill="#0080ff"
     fill-rule="evenodd"
     id="path4612" />
  <path
     d="m106.3 425.2 53.151 159.45 159.45 53.149-53.148-159.45-159.45-53.15z"
     fill="#0080ff"
     fill-rule="evenodd"
     id="path4614" />
  <path
     d="m1.236e-6 531.5 53.151 159.45 159.45 53.15-53.148-159.45-159.45-53.15z"
     fill="#0080ff"
     fill-rule="evenodd"
     id="path4616" />
  <path
     d="m212.6 744.1 53.151 159.45 159.45 53.15-53.148-159.45-159.45-53.147z"
     fill="#0080ff"
     fill-rule="evenodd"
     id="path4618" />
  <path
     d="m212.6 318.9 53.151 159.45 159.45 53.15-53.148-159.45-159.45-53.147z"
     fill="#0080ff"
     fill-rule="evenodd"
     id="path4620" />
  <path
     d="m1.5222e-5 106.3 53.151 159.45 159.45 53.149-53.148-159.45-159.45-53.15z"
     fill="#0080ff"
     fill-rule="evenodd"
     id="path4622" />
  <path
     d="m318.9 637.8 53.151 159.45 159.45 53.149-53.148-159.45-159.45-53.15z"
     fill="#0080ff"
     fill-rule="evenodd"
     id="path4624" />
  <path
     d="m0 673.23v141.73l106.3 35.433-53.148-159.45-53.151-17.72z"
     fill="#0080ff"
     fill-rule="evenodd"
     id="path4626" />
  <path
     d="m106.3 850.4 53.151 159.44 159.45 53.15-53.148-159.45-159.45-53.147z"
     fill="#0080ff"
     fill-rule="evenodd"
     id="path4628" />
  <path
     d="m425.2 531.5 53.151 159.45 159.45 53.15-53.148-159.45-159.45-53.147z"
     fill="#0080ff"
     fill-rule="evenodd"
     id="path4630" />
  <path
     d="m425.2 956.69 35.433 106.3h141.73l-17.719-53.15-159.45-53.147z"
     fill="#0080ff"
     fill-rule="evenodd"
     id="path4632" />
  <path
     d="m0.0024 956.69 35.431 106.3h141.73l-17.717-53.15-159.45-53.147z"
     fill="#0080ff"
     fill-rule="evenodd"
     id="path4634" />
  <path
     d="m850.39 956.69 35.435 106.3h141.73l-17.72-53.15-159.45-53.146z"
     fill="#0080ff"
     fill-rule="evenodd"
     id="path4636" />
  <path
     d="m744.09 637.8 53.15 159.45 159.45 53.15-53.15-159.45-159.45-53.147z"
     fill="#0080ff"
     fill-rule="evenodd"
     id="path4638" />
  <path
     d="m531.5 3.8e-4 53.151 159.45 159.45 53.149-53.148-159.45-159.45-53.15z"
     fill="#0080ff"
     fill-rule="evenodd"
     id="path4640" />
  <path
     d="m1063 744.09 53.15 159.45 159.45 53.149-53.15-159.45-159.45-53.15z"
     fill="#0080ff"
     fill-rule="evenodd"
     id="path4642" />
  <path
     d="m637.8 744.09 53.151 159.45 159.44 53.15-53.15-159.45-159.45-53.15z"
     fill="#0080ff"
     fill-rule="evenodd"
     id="path4644" />
  <path
     d="m956.69 850.4 53.147 159.44 159.45 53.15-53.15-159.45-159.45-53.147z"
     fill="#0080ff"
     fill-rule="evenodd"
     id="path4646" />
  <path
     d="m531.5 425.2 53.15 159.45 159.45 53.15-53.15-159.45-159.45-53.147z"
     fill="#0080ff"
     fill-rule="evenodd"
     id="path4648" />
  <path
     d="m318.9 212.6 53.146 159.45 159.45 53.149-53.15-159.45-159.45-53.15z"
     fill="#0080ff"
     fill-rule="evenodd"
     id="path4650" />
  <path
     d="m0 248.03v141.73l106.3 35.433-53.15-159.45-53.147-17.72z"
     fill="#0080ff"
     fill-rule="evenodd"
     id="path4652" />
  <path
     d="m531.5 850.39 53.15 159.45 159.45 53.15-53.15-159.45-159.45-53.147z"
     fill="#0080ff"
     fill-rule="evenodd"
     id="path4654" />
  <path
     d="m248.03 3.8525e-14 17.717 53.15 159.45 53.149-35.434-106.3h-141.73z"
     fill="#0080ff"
     fill-rule="evenodd"
     id="path4656" />
  <path
     d="m425.2 106.3 53.151 159.45 159.45 53.149-53.148-159.45-159.45-53.15z"
     fill="#0080ff"
     fill-rule="evenodd"
     id="path4658" />
  <path
     d="m1275.6 956.69 35.43 106.3h106.3v-60.31l-141.73-45.987z"
     fill="#0080ff"
     fill-rule="evenodd"
     id="path4660" />
  <path
     d="m637.8 318.9 53.151 159.45 159.45 53.149-53.148-159.45-159.45-53.15z"
     fill="#0080ff"
     fill-rule="evenodd"
     id="path4662" />
  <path
     d="m744.09 212.6 53.151 159.45 159.45 53.149-53.148-159.45-159.45-53.15z"
     fill="#0080ff"
     fill-rule="evenodd"
     id="path4664" />
  <path
     d="m673.23 3.8525e-14 17.719 53.15 159.45 53.149-35.433-106.3h-141.73z"
     fill="#0080ff"
     fill-rule="evenodd"
     id="path4666" />
  <path
     d="m850.39 106.3 53.151 159.45 159.44 53.149-53.15-159.45-159.45-53.15z"
     fill="#0080ff"
     fill-rule="evenodd"
     id="path4668" />
  <path
     d="m850.39 531.5 53.151 159.45 159.44 53.149-53.15-159.45-159.45-53.15z"
     fill="#0080ff"
     fill-rule="evenodd"
     id="path4670" />
  <path
     d="m956.7 425.2 53.155 159.45 159.44 53.149-53.15-159.45-159.44-53.15z"
     fill="#0080ff"
     fill-rule="evenodd"
     id="path4672" />
  <path
     d="m1063 318.9 53.16 159.45 159.44 53.149-53.15-159.45-159.45-53.15z"
     fill="#0080ff"
     fill-rule="evenodd"
     id="path4674" />
  <path
     d="m956.69-6.3112e-5 53.157 159.45 159.44 53.149-53.15-159.45-159.45-53.15z"
     fill="#0080ff"
     fill-rule="evenodd"
     id="path4676" />
  <a
     id="a4702"
     href="https://bafoeg-rueckzahlung.info">
    <path
       id="path4678"
       fill-rule="evenodd"
       fill="#0080ff"
       d="m1169.3 212.6 53.16 159.45 159.44 53.149-53.15-159.45-159.45-53.15z" />
  </a>
  <path
     d="m1098.4 3.8525e-14 17.72 53.15 159.44 53.149-35.43-106.3h-141.73z"
     fill="#0080ff"
     fill-rule="evenodd"
     id="path4680" />
  <path
     d="m1275.6 106.3 53.16 159.45 88.57 28.347v-141.73l-141.73-46.063z"
     fill="#0080ff"
     fill-rule="evenodd"
     id="path4682" />
  <path
     d="m1275.6 531.5 53.16 159.45 88.57 28.347v-141.73l-141.73-46.063z"
     fill="#0080ff"
     fill-rule="evenodd"
     id="path4684" />
  <path
     d="m1381.9 425.2 35.43 116.93v-105.8l-35.43-11.126z"
     fill="#0080ff"
     fill-rule="evenodd"
     id="path4686" />
  <path
     d="m1169.3 637.8 53.16 159.45 159.44 53.149-53.15-159.45-159.45-53.15z"
     fill="#0080ff"
     fill-rule="evenodd"
     id="path4688" />
  <path
     d="m1381.9 850.4 35.43 106.3v-95.599l-35.43-10.699z"
     fill="#0080ff"
     fill-rule="evenodd"
     id="path4690" />
  <path
     d="m1381.9 0.00191 35.43 106.3v-94.748l-35.43-11.549z"
     fill="#0080ff"
     fill-rule="evenodd"
     id="path4692" />
</svg>
